#!OML:ASF X:\für Bonn\!DataBase\2005_08_12_Daniel\c3d\Daniel.ASF
:FULLY-SPECIFIED
:DEGREES
346
root 2.78919 17.4684 -12.9483 350.124 11.5984 -1.72935
lowerback 30.1455 -3.46157 -1.3178
upperback 9.31501 -4.96199 -3.29219
thorax -6.20575 -2.3205 -1.20569
lowerneck -3.01061 2.1043 -1.4642
upperneck 14.7471 3.17299 -1.53532
head 4.92389 1.37674 -0.0715563
rclavicle -7.71285e-014 -4.77083e-015
rhumerus 156.476 -168.525 -265.043
rradius 17.8052
rwrist 21.9224
rhand -11.4394 12.5666
rfingers 7.12502
rthumb 14.5972 -16.8997
lclavicle -7.71285e-014 -4.77083e-015
lhumerus -15.0542 12.6187 79.8906
lradius 24.6723
lwrist -13.14
lhand -13.9621 -7.01306
lfingers 7.12502
lthumb 12.1657 22.6132
rfemur -21.3822 -5.95372 18.6779
rtibia 49.3482
rfoot -6.01007 3.62936
rtoes -15.3108
lfemur 2.32978 -11.8397 -24.8441
ltibia 34.4414
lfoot -26.8975 -4.89985
ltoes -3.90419
347
root 2.80548 17.4799 -12.8656 350.175 11.4655 -1.7291
lowerback 29.6083 -3.59455 -1.40803
upperback 9.17721 -5.15283 -3.2407
thorax -6.10171 -2.41943 -1.05213
lowerneck -2.84743 2.24194 -1.75686
upperneck 14.6583 3.35881 -1.42543
head 4.86286 1.4602 0.0168926
rclavicle 2.0276e-014 1.11319e-014
rhumerus 155.802 -167.962 -265.085
rradius 17.9123
rwrist 21.3211
rhand -11.3694 12.5018
rfingers 7.12502
rthumb 14.6646 -16.9596
lclavicle 2.0276e-014 1.11319e-014
lhumerus -15.1062 12.7151 79.8557
lradius 24.7796
lwrist -13.6719
lhand -13.8775 -7.22442
lfingers 7.12502
lthumb 12.2472 22.397
rfemur -21.3167 -5.66745 18.8331
rtibia 47.9376
rfoot -6.39627 2.94054
rtoes -15.2579
lfemur 3.02965 -12.0236 -24.9981
ltibia 33.7396
lfoot -26.8677 -4.56062
ltoes -3.66156
348
root 2.82194 17.4898 -12.7821 350.223 11.3205 -1.72661
lowerback 29.111 -3.71687 -1.45936
upperback 9.02392 -5.32074 -3.1923
thorax -6.03417 -2.50655 -0.932089
lowerneck -2.68788 2.35247 -2.00383
upperneck 14.6004 3.51121 -1.3643
head 4.81301 1.52659 0.0809772
rclavicle 3.29983e-014 1.59028e-015
rhumerus 155.01 -167.478 -265.097
rradius 18.092
rwrist 20.7675
rhand -11.3412 12.3854
rfingers 7.12502
rthumb 14.6918 -17.074
lclavicle 3.29983e-014 1.59028e-015
lhumerus -15.1384 12.7782 79.8523
lradius 24.8699
lwrist -14.1767
lhand -13.7757 -7.386
lfingers 7.12502
lthumb 12.3453 22.2295
rfemur -21.2181 -5.33415 18.9698
rtibia 46.4606
rfoot -6.82806 2.21847
rtoes -15.3094
lfemur 3.73957 -12.1939 -25.1639
ltibia 33.0352
lfoot -26.8453 -4.18248
ltoes -3.46118
349
root 2.83829 17.4994 -12.6972 350.322 11.1715 -1.70677
lowerback 28.5662 -3.83117 -1.50474
upperback 8.88186 -5.47539 -3.14885
thorax -5.92984 -2.58786 -0.8306
lowerneck -2.59008 2.45506 -2.29115
upperneck 14.5312 3.64864 -1.24274
head 4.76788 1.58705 0.169963
rclavicle -1.59028e-014 3.81667e-014
rhumerus 154.26 -166.783 -265.018
rradius 18.1911
rwrist 20.6262
rhand -11.2984 12.315
rfingers 7.12502
rthumb 14.733 -17.1414
lclavicle -1.59028e-014 3.81667e-014
lhumerus -15.1078 12.9229 79.8658
lradius 24.9497
lwrist -14.7238
lhand -13.6231 -7.53868
lfingers 7.12502
lthumb 12.4925 22.0679
rfemur -21.1313 -4.89963 19.0674
rtibia 44.9154
rfoot -7.27922 1.42837
rtoes -15.3524
lfemur 4.40011 -12.3545 -25.3313
ltibia 32.3406
lfoot -26.848 -3.82872
ltoes -3.32898
350
root 2.85382 17.5083 -12.6115 350.408 11.0036 -1.70536
lowerback 28.0509 -3.93814 -1.51983
upperback 8.7452 -5.61292 -3.10737
thorax -5.83374 -2.66055 -0.754903
lowerneck -2.53989 2.55096 -2.51026
upperneck 14.4959 3.77891 -1.15691
head 4.74262 1.64475 0.2372
rclavicle 1.74931e-014 -3.02153e-014
rhumerus 153.496 -165.86 -264.841
rradius 18.2329
rwrist 21.0168
rhand -11.3065 12.1834
rfingers 7.12502
rthumb 14.7252 -17.2736
lclavicle 1.74931e-014 -3.02153e-014
lhumerus -15.0154 13.0331 79.8849
lradius 24.9779
lwrist -15.1766
lhand -13.4665 -7.5962
lfingers 7.12502
lthumb 12.6435 22.0011
rfemur -21.0022 -4.40102 19.1661
rtibia 43.3036
rfoot -7.73431 0.634986
rtoes -15.4826
lfemur 5.07617 -12.5019 -25.477
ltibia 31.6326
lfoot -26.8274 -3.48306
ltoes -3.04121
351
root 2.87011 17.5164 -12.5247 350.508 10.8225 -1.6837
lowerback 27.535 -4.03603 -1.51857
upperback 8.61127 -5.73566 -3.08057
thorax -5.73519 -2.72593 -0.711334
lowerneck -2.50854 2.63152 -2.70953
upperneck 14.4806 3.88845 -1.07334
head 4.72678 1.69284 0.299855
rclavicle 3.06128e-014 3.65764e-014
rhumerus 152.725 -164.871 -264.591
rradius 18.2261
rwrist 21.6909
rhand -11.2949 12.0124
rfingers 7.12502
rthumb 14.7364 -17.4438
lclavicle 3.06128e-014 3.65764e-014
lhumerus -14.92 13.156 79.9175
lradius 25.0202
lwrist -15.6141
lhand -13.2774 -7.63596
lfingers 7.12502
lthumb 12.8258 21.95
rfemur -20.8271 -3.79861 19.1996
rtibia 41.6156
rfoot -8.21471 -0.187166
rtoes -15.2721
lfemur 5.74807 -12.6198 -25.642
ltibia 30.9198
lfoot -26.8115 -3.12357
ltoes -2.87153
352
root 2.88535 17.5227 -12.4371 350.609 10.6291 -1.66282
lowerback 27.0408 -4.11264 -1.47307
upperback 8.48245 -5.82112 -3.06834
thorax -5.64506 -2.77268 -0.720761
lowerneck -2.5381 2.68722 -2.84024
upperneck 14.5016 3.96437 -0.99987
head 4.73375 1.7266 0.347933
rclavicle 3.97569e-016 -2.8625e-014
rhumerus 151.96 -163.913 -264.327
rradius 18.1807
rwrist 22.5539
rhand -11.3219 11.7159
rfingers 7.12502
rthumb 14.7104 -17.7421
lclavicle 3.97569e-016 -2.8625e-014
lhumerus -14.8081 13.1735 79.9713
lradius 25.086
lwrist -16.0309
lhand -13.095 -7.63695
lfingers 7.12502
lthumb 13.0016 21.9379
rfemur -20.5968 -3.0377 19.1845
rtibia 39.8553
rfoot -8.75654 -1.16448
rtoes -14.9025
lfemur 6.42054 -12.6793 -25.7882
ltibia 30.1984
lfoot -26.7741 -2.80495
ltoes -2.70359
353
root 2.90066 17.5289 -12.3489 350.729 10.4286 -1.61066
lowerback 26.5675 -4.18051 -1.48288
upperback 8.33663 -5.90925 -3.0334
thorax -5.57424 -2.82066 -0.672743
lowerneck -2.53187 2.75323 -2.98738
upperneck 14.4828 4.05596 -0.949342
head 4.72244 1.76677 0.391362
rclavicle 7.87187e-014 4.77083e-015
rhumerus 151.247 -163.545 -264.175
rradius 18.0753
rwrist 23.0467
rhand -11.4139 11.3692
rfingers 7.12502
rthumb 14.6218 -18.0953
lclavicle 7.87187e-014 4.77083e-015
lhumerus -14.7704 13.2198 80.0643
lradius 25.2381
lwrist -16.2772
lhand -12.867 -7.6021
lfingers 7.12502
lthumb 13.2214 21.9586
rfemur -20.392 -2.13579 19.0894
rtibia 38.0196
rfoot -9.30596 -2.3328
rtoes -14.5882
lfemur 7.08184 -12.7274 -25.9606
ltibia 29.4739
lfoot -26.7533 -2.51517
ltoes -2.49796
354
root 2.91607 17.5327 -12.2592 350.829 10.1972 -1.58279
lowerback 26.123 -4.23638 -1.44205
upperback 8.20382 -5.97036 -3.01217
thorax -5.50779 -2.85505 -0.67612
lowerneck -2.54827 2.80736 -3.00307
upperneck 14.4763 4.13278 -0.969575
head 4.72268 1.80216 0.391446
rclavicle -2.82274e-014 4.77083e-015
rhumerus 150.654 -163.181 -264.031
rradius 17.7527
rwrist 23.644
rhand -11.5061 11.0436
rfingers 7.12502
rthumb 14.5329 -18.4274
lclavicle -2.82274e-014 4.77083e-015
lhumerus -14.6963 13.183 80.1489
lradius 25.3298
lwrist -16.5241
lhand -12.6977 -7.6378
lfingers 7.12502
lthumb 13.3846 21.9123
rfemur -20.1301 -1.16535 19.0113
rtibia 36.1287
rfoot -9.85556 -3.52333
rtoes -14.2203
lfemur 7.77028 -12.7288 -26.1032
ltibia 28.7483
lfoot -26.7457 -2.2342
ltoes -2.28068
355
root 2.93082 17.5359 -12.1703 350.946 9.98064 -1.53149
lowerback 25.6967 -4.2881 -1.42942
upperback 8.07673 -6.0336 -2.99679
thorax -5.44035 -2.89025 -0.669292
lowerneck -2.57213 2.85107 -2.95803
upperneck 14.5009 4.19624 -1.01978
head 4.73572 1.83178 0.372288
rclavicle -3.81667e-014 7.95139e-015
rhumerus 150.109 -162.799 -263.86
rradius 17.3342
rwrist 24.4554
rhand -11.6164 10.6941
rfingers 7.12502
rthumb 14.4267 -18.7845
lclavicle -3.81667e-014 7.95139e-015
lhumerus -14.6015 13.2637 80.2435
lradius 25.4024
lwrist -16.8319
lhand -12.5404 -7.672
lfingers 7.12502
lthumb 13.5362 21.868
rfemur -19.8704 -0.119209 18.8839
rtibia 34.1875
rfoot -10.3319 -4.75351
rtoes -13.55
lfemur 8.43662 -12.7648 -26.2779
ltibia 28.0308
lfoot -26.7374 -1.91621
ltoes -2.15732
356
root 2.94539 17.5357 -12.079 351.029 9.75694 -1.47673
lowerback 25.3026 -4.32886 -1.43151
upperback 7.96864 -6.08486 -2.96683
thorax -5.36316 -2.9197 -0.641553
lowerneck -2.50969 2.90276 -2.945
upperneck 14.4472 4.26842 -1.07984
head 4.70979 1.86546 0.35339
rclavicle 7.87187e-014 6.36111e-015
rhumerus 149.639 -162.459 -263.646
rradius 16.781
rwrist 25.2725
rhand -11.7101 10.4545
rfingers 7.12502
rthumb 14.3364 -19.0305
lclavicle 7.87187e-014 6.36111e-015
lhumerus -14.5278 13.2606 80.3833
lradius 25.5142
lwrist -16.9331
lhand -12.4343 -7.68214
lfingers 7.12502
lthumb 13.6385 21.851
rfemur -19.5615 0.992715 18.7269
rtibia 32.2266
rfoot -10.8197 -6.0321
rtoes -12.6958
lfemur 9.14301 -12.7686 -26.4607
ltibia 27.3353
lfoot -26.7891 -1.63756
ltoes -2.04917
357
root 2.9582 17.5332 -11.9872 351.126 9.51351 -1.42024
lowerback 24.9199 -4.35762 -1.46694
upperback 7.85256 -6.12822 -2.92394
thorax -5.29435 -2.94526 -0.583083
lowerneck -2.38571 2.95539 -2.89938
upperneck 13.968 4.33533 -1.16886
head 5.05947 1.90203 0.332212
rclavicle -1.23246e-014 -2.06736e-014
rhumerus 149.167 -161.997 -263.305
rradius 16.1428
rwrist 26.4026
rhand -11.7516 10.3664
rfingers 7.12502
rthumb 14.2964 -19.1215
lclavicle -1.23246e-014 -2.06736e-014
lhumerus -14.4509 13.3067 80.5174
lradius 25.5781
lwrist -17.0737
lhand -12.355 -7.66484
lfingers 7.12502
lthumb 13.7149 21.8632
rfemur -19.2669 2.20584 18.5389
rtibia 30.2837
rfoot -11.3512 -7.35587
rtoes -11.4877
lfemur 9.83621 -12.7424 -26.6239
ltibia 26.6318
lfoot -26.8394 -1.38243
ltoes -1.94515
